<svg version="1.1" viewBox="0.0 0.0 123.38057742782152 119.24671916010499" fill="none" stroke="none" stroke-linecap="square" stroke-miterlimit="10" xmlns:xlink="http://www.w3.org/1999/xlink" xmlns="http://www.w3.org/2000/svg"><clipPath id="p.0"><path d="m0 0l123.38058 0l0 119.24672l-123.38058 0l0 -119.24672z" clip-rule="nonzero"/></clipPath><g clip-path="url(#p.0)"><path fill="#000000" fill-opacity="0.0" d="m0 0l123.38058 0l0 119.24672l-123.38058 0z" fill-rule="evenodd"/><path fill="#ffffff" d="m17.089912 68.735985l0 0c0 -26.509666 21.490334 -48.0 48.0 -48.0l0 0c12.730392 0 24.939377 5.057129 33.941124 14.058876c9.001747 9.001743 14.058876 21.210732 14.058876 33.941124l0 0c0 26.509666 -21.490334 48.0 -48.0 48.0l0 0c-26.509666 0 -48.0 -21.490334 -48.0 -48.0z" fill-rule="evenodd"/><path stroke="#000000" stroke-width="3.0" stroke-linejoin="round" stroke-linecap="butt" d="m17.089912 68.735985l0 0c0 -26.509666 21.490334 -48.0 48.0 -48.0l0 0c12.730392 0 24.939377 5.057129 33.941124 14.058876c9.001747 9.001743 14.058876 21.210732 14.058876 33.941124l0 0c0 26.509666 -21.490334 48.0 -48.0 48.0l0 0c-26.509666 0 -48.0 -21.490334 -48.0 -48.0z" fill-rule="evenodd"/><path fill="#000000" fill-opacity="0.0" d="m1.4133836 58.675568l0 0c2.2793832 -22.239948 16.354015 -41.649055 37.02379 -51.056293c20.669773 -9.40724 44.86605 -7.4160156 63.64911 5.2379804l-36.50818 52.146446z" fill-rule="evenodd"/><path fill="#000000" fill-opacity="0.0" d="m1.4133836 58.675568l0 0c2.2793832 -22.239948 16.354015 -41.649055 37.02379 -51.056293c20.669773 -9.40724 44.86605 -7.4160156 63.64911 5.2379804" fill-rule="evenodd"/><path stroke="#000000" stroke-width="2.0" stroke-linejoin="round" stroke-linecap="butt" stroke-dasharray="8.0,6.0" d="m1.4133836 58.675568l0 0c2.2793832 -22.239948 16.354015 -41.649055 37.02379 -51.056293c20.669773 -9.40724 44.86605 -7.4160156 63.64911 5.2379804" fill-rule="evenodd"/><path fill="#ffffff" d="m111.30389 21.760983l0 0c0 -2.6527061 2.150444 -4.80315 4.8031464 -4.80315l0 0c1.27388 0 2.495575 0.5060463 3.3963394 1.4068108c0.90076447 0.90076447 1.4068146 2.1224651 1.4068146 3.3963394l0 0c0 2.6527061 -2.150444 4.80315 -4.803154 4.80315l0 0c-2.6527023 0 -4.8031464 -2.150444 -4.8031464 -4.80315z" fill-rule="evenodd"/><path stroke="#000000" stroke-width="2.0" stroke-linejoin="round" stroke-linecap="butt" d="m111.30389 21.760983l0 0c0 -2.6527061 2.150444 -4.80315 4.8031464 -4.80315l0 0c1.27388 0 2.495575 0.5060463 3.3963394 1.4068108c0.90076447 0.90076447 1.4068146 2.1224651 1.4068146 3.3963394l0 0c0 2.6527061 -2.150444 4.80315 -4.803154 4.80315l0 0c-2.6527023 0 -4.8031464 -2.150444 -4.8031464 -4.80315z" fill-rule="evenodd"/></g></svg>