<svg version="1.1" viewBox="0.0 0.0 144.0 144.0" fill="none" stroke="none" stroke-linecap="square" stroke-miterlimit="10" xmlns:xlink="http://www.w3.org/1999/xlink" xmlns="http://www.w3.org/2000/svg"><clipPath id="p.0"><path d="m0 0l144.0 0l0 144.0l-144.0 0l0 -144.0z" clip-rule="nonzero"/></clipPath><g clip-path="url(#p.0)"><path fill="#000000" fill-opacity="0.0" d="m0 0l144.0 0l0 144.0l-144.0 0z" fill-rule="evenodd"/><path fill="#ffffff" d="m23.51181 75.732285l0 0c0 -26.50967 21.490334 -48.0 48.0 -48.0l0 0c12.730392 0 24.939377 5.057131 33.941124 14.058874c9.001747 9.001747 14.058876 21.210735 14.058876 33.941128l0 0c0 26.509666 -21.490334 48.0 -48.0 48.0l0 0c-26.509666 0 -48.0 -21.490334 -48.0 -48.0z" fill-rule="evenodd"/><path stroke="#000000" stroke-width="3.0" stroke-linejoin="round" stroke-linecap="butt" d="m23.51181 75.732285l0 0c0 -26.50967 21.490334 -48.0 48.0 -48.0l0 0c12.730392 0 24.939377 5.057131 33.941124 14.058874c9.001747 9.001747 14.058876 21.210735 14.058876 33.941128l0 0c0 26.509666 -21.490334 48.0 -48.0 48.0l0 0c-26.509666 0 -48.0 -21.490334 -48.0 -48.0z" fill-rule="evenodd"/><path fill="#000000" fill-opacity="0.0" d="m48.228348 27.614174l47.1811 96.69291" fill-rule="evenodd"/><path stroke="#000000" stroke-width="2.0" stroke-linejoin="round" stroke-linecap="butt" stroke-dasharray="8.0,6.0" d="m48.228348 27.614174l47.1811 96.69291" fill-rule="evenodd"/><path fill="#000000" d="m117.725784 28.75728l0 0c0 -2.6527061 2.150444 -4.8031483 4.8031464 -4.8031483l0 0c1.27388 0 2.495575 0.5060444 3.396347 1.4068089c0.90076447 0.9007664 1.406807 2.1224651 1.406807 3.3963394l0 0c0 2.6527061 -2.150444 4.8031483 -4.803154 4.8031483l0 0c-2.6527023 0 -4.8031464 -2.1504421 -4.8031464 -4.8031483z" fill-rule="evenodd"/><path stroke="#000000" stroke-width="1.0" stroke-linejoin="round" stroke-linecap="butt" d="m117.725784 28.75728l0 0c0 -2.6527061 2.150444 -4.8031483 4.8031464 -4.8031483l0 0c1.27388 0 2.495575 0.5060444 3.396347 1.4068089c0.90076447 0.9007664 1.406807 2.1224651 1.406807 3.3963394l0 0c0 2.6527061 -2.150444 4.8031483 -4.803154 4.8031483l0 0c-2.6527023 0 -4.8031464 -2.1504421 -4.8031464 -4.8031483z" fill-rule="evenodd"/><path fill="#000000" fill-opacity="0.0" d="m7.8352823 65.67187l0 0c2.2793837 -22.239952 16.354015 -41.649055 37.02379 -51.056293c20.669777 -9.40724 44.86605 -7.416016 63.64911 5.237981l-36.50818 52.146446z" fill-rule="evenodd"/><path fill="#000000" fill-opacity="0.0" d="m7.8352823 65.67187l0 0c2.2793837 -22.239952 16.354015 -41.649055 37.02379 -51.056293c20.669777 -9.40724 44.86605 -7.416016 63.64911 5.237981" fill-rule="evenodd"/><path stroke="#000000" stroke-width="2.0" stroke-linejoin="round" stroke-linecap="butt" stroke-dasharray="8.0,6.0" d="m7.8352823 65.67187l0 0c2.2793837 -22.239952 16.354015 -41.649055 37.02379 -51.056293c20.669777 -9.40724 44.86605 -7.416016 63.64911 5.237981" fill-rule="evenodd"/></g></svg>