<svg version="1.1" viewBox="0.0 0.0 123.38057742782152 119.24671916010499" fill="none" stroke="none" stroke-linecap="square" stroke-miterlimit="10" xmlns:xlink="http://www.w3.org/1999/xlink" xmlns="http://www.w3.org/2000/svg"><clipPath id="p.0"><path d="m0 0l123.38058 0l0 119.24672l-123.38058 0l0 -119.24672z" clip-rule="nonzero"/></clipPath><g clip-path="url(#p.0)"><path fill="#000000" fill-opacity="0.0" d="m0 0l123.38058 0l0 119.24672l-123.38058 0z" fill-rule="evenodd"/><path fill="#000000" fill-opacity="0.0" d="m3.6381097 63.775417l0 0c1.9065037 -18.08498 12.522217 -34.240135 28.641851 -43.58761c16.119637 -9.347471 35.853798 -10.791634 53.243996 -3.8964405l-22.602676 53.330746z" fill-rule="evenodd"/><path fill="#000000" fill-opacity="0.0" d="m3.6381097 63.775417l0 0c1.9065037 -18.08498 12.522217 -34.240135 28.641851 -43.58761c16.119637 -9.347471 35.853798 -10.791634 53.243996 -3.8964405" fill-rule="evenodd"/><path stroke="#000000" stroke-width="4.0" stroke-linejoin="round" stroke-linecap="butt" d="m3.6381097 63.775417l0 0c1.9065037 -18.08498 12.522217 -34.240135 28.641851 -43.58761c16.119637 -9.347471 35.853798 -10.791634 53.243996 -3.8964405" fill-rule="evenodd"/><path fill="#ffffff" d="m25.690289 67.624435l0 0c0 -19.882248 16.117748 -36.0 36.0 -36.0l0 0c9.547794 0 18.704533 3.7928448 25.455845 10.544157c6.7513123 6.7513084 10.544159 15.908051 10.544159 25.455841l0 0c0 19.882256 -16.117752 36.0 -36.000004 36.0l0 0c-19.882252 0 -36.0 -16.117744 -36.0 -36.0z" fill-rule="evenodd"/><path stroke="#000000" stroke-width="4.0" stroke-linejoin="round" stroke-linecap="butt" d="m25.690289 67.624435l0 0c0 -19.882248 16.117748 -36.0 36.0 -36.0l0 0c9.547794 0 18.704533 3.7928448 25.455845 10.544157c6.7513123 6.7513084 10.544159 15.908051 10.544159 25.455841l0 0c0 19.882256 -16.117752 36.0 -36.000004 36.0l0 0c-19.882252 0 -36.0 -16.117744 -36.0 -36.0z" fill-rule="evenodd"/><path fill="#ffffff" d="m93.61984 25.696915l0 0c0 -6.6274166 5.3725815 -11.999999 12.0 -11.999999l0 0c3.1825943 0 6.2348404 1.2642822 8.485275 3.514718c2.2504425 2.2504368 3.5147247 5.302685 3.5147247 8.485281l0 0c0 6.6274185 -5.372589 12.0 -12.0 12.0l0 0c-6.6274185 0 -12.0 -5.3725815 -12.0 -12.0z" fill-rule="evenodd"/><path stroke="#000000" stroke-width="4.0" stroke-linejoin="round" stroke-linecap="butt" d="m93.61984 25.696915l0 0c0 -6.6274166 5.3725815 -11.999999 12.0 -11.999999l0 0c3.1825943 0 6.2348404 1.2642822 8.485275 3.514718c2.2504425 2.2504368 3.5147247 5.302685 3.5147247 8.485281l0 0c0 6.6274185 -5.372589 12.0 -12.0 12.0l0 0c-6.6274185 0 -12.0 -5.3725815 -12.0 -12.0z" fill-rule="evenodd"/></g></svg>